# xmcd CD database file
#
# Track frame offsets:
#	150
#	19282
#	41425
#	59792
#	79495
#	98817
#	120412
#	139420
#	161715
#	182962
#
# Disc length: 2694 seconds
#
# Revision: 0
# Processed by: cddbd v1.5.1PL0 Copyright (c) Steve Scherf et al.
# Submitted via: CDex 1.51
#
DISCID=900a840a
DTITLE=高橋良明 - 夏物語へようこそ！
DYEAR=1988
DGENRE=Rock
TTITLE0=マドンナをおとせ
TTITLE1=君にノイローゼ
TTITLE2=恋の３−２−１
TTITLE3=春まで100マイル
TTITLE4=夏物語へようこそ！
TTITLE5=22.5cm のシンデレラ
TTITLE6=そよ風のサドル
TTITLE7=八月のハーフ・ムーン
TTITLE8=TSURAIZE
TTITLE9=STAND UP!
EXTD=YEAR: 1988
EXTT0=
EXTT1=
EXTT2=
EXTT3=
EXTT4=
EXTT5=
EXTT6=
EXTT7=
EXTT8=
EXTT9=
PLAYORDER=
